<?xml version="1.0" encoding="UTF-8"?>
<svg xmlns="http://www.w3.org/2000/svg" width="512" height="512" viewBox="0 0 512 512">
<rect width="512" height="512" fill="rgb(232,84,30)"/>
<g transform="translate(256,256) scale(0.86) translate(-256,-256)">
<rect x="104.96" y="266.24" width="20.48" height="143.36" fill="rgb(255,255,255)"/>
<rect x="386.56" y="266.24" width="20.48" height="143.36" fill="rgb(255,255,255)"/>
<rect x="87.04" y="294.40" width="337.92" height="20.48" fill="rgb(255,255,255)"/>
<rect x="102.40" y="314.88" width="307.20" height="92.16" fill="rgb(255,255,255)"/>
<rect x="102.40" y="314.88" width="307.20" height="8.70" fill="rgb(193,60,20)"/>
<defs><clipPath id="awn">
<path d="M 256.00 81.92 L 51.20 230.40 L 460.80 230.40 Z"/>
<path d="M 61.44 230.40 L 450.56 230.40 L 450.56 256.00 L 446.51 259.50 L 442.45 262.86 L 438.40 265.96 L 434.35 268.67 L 430.29 270.90 L 426.24 272.56 L 422.19 273.58 L 418.13 273.92 L 414.08 273.58 L 410.03 272.56 L 405.97 270.90 L 401.92 268.67 L 397.87 265.96 L 393.81 262.86 L 389.76 259.50 L 385.71 256.00 L 381.65 259.50 L 377.60 262.86 L 373.55 265.96 L 369.49 268.67 L 365.44 270.90 L 361.39 272.56 L 357.33 273.58 L 353.28 273.92 L 349.23 273.58 L 345.17 272.56 L 341.12 270.90 L 337.07 268.67 L 333.01 265.96 L 328.96 262.86 L 324.91 259.50 L 320.85 256.00 L 316.80 259.50 L 312.75 262.86 L 308.69 265.96 L 304.64 268.67 L 300.59 270.90 L 296.53 272.56 L 292.48 273.58 L 288.43 273.92 L 284.37 273.58 L 280.32 272.56 L 276.27 270.90 L 272.21 268.67 L 268.16 265.96 L 264.11 262.86 L 260.05 259.50 L 256.00 256.00 L 251.95 259.50 L 247.89 262.86 L 243.84 265.96 L 239.79 268.67 L 235.73 270.90 L 231.68 272.56 L 227.63 273.58 L 223.57 273.92 L 219.52 273.58 L 215.47 272.56 L 211.41 270.90 L 207.36 268.67 L 203.31 265.96 L 199.25 262.86 L 195.20 259.50 L 191.15 256.00 L 187.09 259.50 L 183.04 262.86 L 178.99 265.96 L 174.93 268.67 L 170.88 270.90 L 166.83 272.56 L 162.77 273.58 L 158.72 273.92 L 154.67 273.58 L 150.61 272.56 L 146.56 270.90 L 142.51 268.67 L 138.45 265.96 L 134.40 262.86 L 130.35 259.50 L 126.29 256.00 L 122.24 259.50 L 118.19 262.86 L 114.13 265.96 L 110.08 268.67 L 106.03 270.90 L 101.97 272.56 L 97.92 273.58 L 93.87 273.92 L 89.81 273.58 L 85.76 272.56 L 81.71 270.90 L 77.65 268.67 L 73.60 265.96 L 69.55 262.86 L 65.49 259.50 L 61.44 256.00 Z"/>
</clipPath></defs>
<g clip-path="url(#awn)">
<rect x="40.96" y="71.68" width="430.08" height="215.04" fill="rgb(255,255,255)"/>
<rect x="96.71" y="71.68" width="45.51" height="215.04" fill="rgb(193,60,20)"/>
<rect x="187.73" y="71.68" width="45.51" height="215.04" fill="rgb(193,60,20)"/>
<rect x="278.76" y="71.68" width="45.51" height="215.04" fill="rgb(193,60,20)"/>
<rect x="369.78" y="71.68" width="45.51" height="215.04" fill="rgb(193,60,20)"/>
</g>
<rect x="251.90" y="43.52" width="8.19" height="40.96" fill="rgb(193,60,20)"/>
<path d="M 260.10 48.64 L 260.10 76.80 L 307.20 62.98 Z" fill="rgb(255,255,255)"/>
</g></svg>